<svg id="Layer_1" data-name="Layer 1" xmlns="http://www.w3.org/2000/svg" viewBox="0 0 57 57.01"><path d="M43,16a6,6,0,1,0-6-6A6,6,0,0,0,43,16ZM43,6a4,4,0,0,1,0,8h-.3A4,4,0,0,0,44,11H42a2,2,0,0,1-1.7,2A4,4,0,0,1,43,6Z" transform="translate(-4 -2.99)"/><path d="M12,28a6,6,0,1,0-6-6A6,6,0,0,0,12,28Zm0-10a4,4,0,0,1,4,4,4.16,4.16,0,0,1-1.3,3A2.13,2.13,0,0,1,13,23H11a4.16,4.16,0,0,0,1.3,3H12a4,4,0,0,1,0-8Z" transform="translate(-4 -2.99)"/><path d="M60.3,5.1l-6-2a.76.76,0,0,0-.9.1A1.23,1.23,0,0,0,53,4V16a.94.94,0,0,1-1,1H39.4a2.11,2.11,0,0,0-1.3.5l-5.6,4.6a2.65,2.65,0,0,0-.5.6l-2.6,5.2a1.21,1.21,0,0,1-.5.5l-5.6,2.4a.85.85,0,0,1-.7,0l-5.1-1.7c-.2,0-.4-.1-.6-.1H10a6,6,0,0,0-6,6v9a2,2,0,0,0,2,2H7a.94.94,0,0,1,1,1V57a.94.94,0,0,1-1,1H5a.94.94,0,0,0-1,1H4a.94.94,0,0,0,1,1H17a2,2,0,0,0,2-2V55a.94.94,0,0,1,1-1H32a2,2,0,0,0,2-2V49a.94.94,0,0,1,1-1h9a2,2,0,0,0,2-2V43a.94.94,0,0,1,1-1H59a.94.94,0,0,0,1-1h0a.94.94,0,0,0-1-1h0a.94.94,0,0,1-1-1V33a6,6,0,0,0-6-6H50a.94.94,0,0,1-1-1V24a.94.94,0,0,1,1-1h3a6,6,0,0,0,6-6V13a2,2,0,0,0-2-2H56a.94.94,0,0,1-1-1V9.4a1,1,0,0,1,.7-.9L60.3,7A1.2,1.2,0,0,0,61,6,1,1,0,0,0,60.3,5.1ZM44.5,19,44,20.3,43.5,19ZM18,52a.94.94,0,0,0-1,1v5H15V46h5v6Zm4,0V45a.94.94,0,0,0-1-1H14a.94.94,0,0,0-1,1V58H10V35H8v8.4a.65.65,0,0,1-.6.6h0A1.37,1.37,0,0,1,6,42.6V34a3,3,0,0,1,3-3h3v7h2V31h2.8l5.8,1.9a.85.85,0,0,0,.7,0l6.2-2.7.6.9.3.5-6,3a2.62,2.62,0,0,1-1.5.2L17.1,34a1.08,1.08,0,0,0-.8.2,1.14,1.14,0,0,0-.3.8v5a.94.94,0,0,0,1,1h5a3,3,0,0,1,3,3v8Zm11-6a.94.94,0,0,0-1,1v5H27V44a5,5,0,0,0-5-5H18V36.2l5.3.8a2.49,2.49,0,0,0,1.7-.3L32.5,33c.1-.1.3-.2.4-.3h0l3.9-5.9L39,25V46Zm18-6H46V34h5Zm6-22a3,3,0,0,1-3,3H48a.94.94,0,0,0-1,1v6a.94.94,0,0,0,1,1h5a3,3,0,0,1,3,3v8H53V33a.94.94,0,0,0-1-1H45a.94.94,0,0,0-1,1V46H41V23a1,1,0,0,0-.6-.9.92.92,0,0,0-1,.1l-4,3-.2.2L32,30.2l-.4-.6a1.58,1.58,0,0,1-.1-1.5l2.3-4.5L39.4,19h2l1.7,4.4a1,1,0,0,0,.9.6.87.87,0,0,0,.9-.6L46.6,19H54a.94.94,0,0,0,1-1V13h2ZM55,6.6V5.4l1.8.6Z" transform="translate(-4 -2.99)"/><rect x="24" y="5.01" width="2" height="2"/><rect x="20" y="5.01" width="2" height="2"/><rect x="16" y="5.01" width="2" height="2"/></svg>