<svg xmlns="http://www.w3.org/2000/svg" viewBox="0 0 64 80" x="0px" y="0px"><g data-name="New Startup"><path d="M44,37a1,1,0,0,0-1-1,.974.974,0,0,0-.506.138,1,1,0,0,1-1.508-.971A1.253,1.253,0,0,0,41,35a1,1,0,0,0-2,0H38a1.987,1.987,0,0,0-1,.277A1.988,1.988,0,0,0,34,37a1,1,0,0,0-1,1H43A1,1,0,0,0,44,37Z"/><path d="M32,37a1,1,0,0,0-1,1h2A1,1,0,0,0,32,37Z"/><path d="M26,35H25a1,1,0,0,0-2,0,1.253,1.253,0,0,0,.014.167,1,1,0,0,1-1.508.971A.974.974,0,0,0,21,36a1,1,0,0,0,0,2H31a1,1,0,0,0-1-1,1.988,1.988,0,0,0-3-1.723A1.987,1.987,0,0,0,26,35Z"/><path d="M52,50H31a1,1,0,0,1-.857-.485L26,42.61V60H52Zm-8,8H42V56h2Zm6,0H46V56h4Z"/><polygon points="52.434 40 26.766 40 31.566 48 57.234 48 52.434 40"/><polygon points="10 42.61 6.766 48 10 48 10 42.61"/><rect x="12" y="40" width="12" height="20"/><circle cx="32" cy="9" r="1"/><path d="M37.618,23h2.939L38.55,17.649a.993.993,0,0,0-.55-.56V22a.982.982,0,0,1-.469.826Z"/><polygon points="30.721 24 33.279 24 33.613 23 30.387 23 30.721 24"/><path d="M25.449,17.649,23.443,23h2.939l.087-.174A.982.982,0,0,1,26,22V17.089A1,1,0,0,0,25.449,17.649Z"/><path d="M36,9.185a2.959,2.959,0,0,0-.511-1.677C33.59,4.733,32.376,4,32,4s-1.59.733-3.489,3.508A2.959,2.959,0,0,0,28,9.185V21h3V15h2v6h3ZM32,12a3,3,0,1,1,3-3A3,3,0,0,1,32,12Z"/><path d="M32,29a2,2,0,0,0-2,2c0,1.495,1.252,4,2,4s2-2.505,2-4A2,2,0,0,0,32,29Z"/><rect x="45" y="24" width="2" height="4"/><rect x="45" y="30" width="2" height="2"/><rect x="49" y="26" width="2" height="4"/><rect x="49" y="32" width="2" height="2"/><rect x="17" y="24" width="2" height="4"/><rect x="17" y="30" width="2" height="2"/><rect x="13" y="26" width="2" height="4"/><rect x="13" y="32" width="2" height="2"/><path d="M53.707,8.707,52.293,7.293A22.469,22.469,0,0,0,46,22h2A20.705,20.705,0,0,1,53.707,8.707Z"/><path d="M53,24a20.705,20.705,0,0,1,5.707-13.293L57.293,9.293A22.469,22.469,0,0,0,51,24Z"/><path d="M18,22A22.469,22.469,0,0,0,11.707,7.293L10.293,8.707A20.813,20.813,0,0,1,16,22Z"/><path d="M13,24A22.469,22.469,0,0,0,6.707,9.293L5.293,10.707A20.813,20.813,0,0,1,11,24Z"/></g><text x="0" y="79" fill="#000000" font-size="5px" font-weight="bold" font-family="'Helvetica Neue', Helvetica, Arial-Unicode, Arial, Sans-serif">Created by Komkrit Noenpoempisut</text><text x="0" y="84" fill="#000000" font-size="5px" font-weight="bold" font-family="'Helvetica Neue', Helvetica, Arial-Unicode, Arial, Sans-serif">from the Noun Project</text></svg>