<svg xmlns="http://www.w3.org/2000/svg" xmlns:xlink="http://www.w3.org/1999/xlink" version="1.1" x="0px" y="0px" viewBox="0 0 64 80" style="enable-background:new 0 0 64 64;" xml:space="preserve"><g><path d="M36,7V5c0-2.206-1.794-4-4-4s-4,1.794-4,4v2c0,2.206,1.794,4,4,4S36,9.206,36,7z M34,7c0,1.103-0.897,2-2,2s-2-0.897-2-2V5   c0-1.103,0.897-2,2-2s2,0.897,2,2V7z"/><path d="M42,31h12c0.369,0,0.708-0.203,0.882-0.528c0.174-0.325,0.155-0.72-0.05-1.026L53.202,27l1.63-2.445   c0.205-0.307,0.224-0.701,0.05-1.026C54.708,23.203,54.369,23,54,23h-5v-3c0-0.553-0.448-1-1-1h-9v-2h1c2.757,0,5-2.243,5-5V2   c0-0.553-0.448-1-1-1h-4c-0.552,0-1,0.447-1,1v9h-7h-7V2c0-0.553-0.448-1-1-1h-4c-0.552,0-1,0.447-1,1v10c0,2.757,2.243,5,5,5h1v2   h-9c-0.552,0-1,0.447-1,1v3h-5c-0.369,0-0.708,0.203-0.882,0.528c-0.174,0.325-0.155,0.72,0.05,1.026L10.798,27l-1.63,2.445   c-0.205,0.307-0.224,0.701-0.05,1.026C9.292,30.797,9.631,31,10,31h12c0.44,0,0.83-0.288,0.957-0.71   c0.029-0.096,0.039-0.193,0.039-0.29H23v-3h2v18.184c-1.161,0.414-2,1.514-2,2.816v2c0,0.553,0.448,1,1,1h6c0.552,0,1-0.447,1-1v-4   V31h2v15v4c0,0.553,0.448,1,1,1h6c0.552,0,1-0.447,1-1v-2c0-1.302-0.839-2.402-2-2.816V27h2v3h0.004c0,0.097,0.01,0.194,0.039,0.29   C41.17,30.712,41.56,31,42,31z M52.131,25l-0.963,1.445c-0.224,0.336-0.224,0.773,0,1.109L52.131,29h-6.829l3.252-2.168   l-0.01-0.015C48.813,26.638,49,26.347,49,26v-1H52.131z M26,15h-2c-1.654,0-3-1.346-3-3V3h2v9c0,0.553,0.448,1,1,1h16   c0.552,0,1-0.447,1-1V3h2v9c0,1.654-1.346,3-3,3h-2c-0.552,0-1,0.447-1,1v3H27v-3C27,15.447,26.552,15,26,15z M17,21h30v4H17V21z    M11.869,29l0.963-1.445c0.224-0.336,0.224-0.773,0-1.109L11.869,25H15v1c0,0.347,0.187,0.638,0.455,0.817l-0.01,0.015L18.697,29   H11.869z M21,28.132L19.303,27H21V28.132z M29,45h-2V35h2V45z M29,49h-4v-1c0-0.552,0.449-1,1-1h3V49z M35,35h2v10h-2V35z M39,49   h-4v-2h3c0.551,0,1,0.448,1,1V49z M37,33h-2v-3c0-0.553-0.448-1-1-1h-4c-0.552,0-1,0.447-1,1v3h-2v-6h10V33z M44.697,27L43,28.132   V27H44.697z"/><rect x="-4.401" y="48" transform="matrix(0.6096 -0.7927 0.7927 0.6096 -34.1587 28.6439)" width="32.802" height="1.999"/><rect x="51" y="32.599" transform="matrix(0.7926 -0.6097 0.6097 0.7926 -19.0923 41.8664)" width="1.999" height="32.802"/><rect x="31" y="59" width="2" height="4"/><rect x="31" y="53" width="2" height="4"/><path d="M57.458,3.727l-1.54-1.275C55.326,3.165,55,4.07,55,5v0.018L57,5C57,4.528,57.158,4.089,57.458,3.727z"/><path d="M59.326,3.026l0.336-1.971c-0.899-0.153-1.884,0.021-2.69,0.496l1.016,1.723C58.387,3.039,58.879,2.952,59.326,3.026z"/><path d="M57.124,5.694l-1.876,0.693c0.324,0.877,0.951,1.617,1.765,2.084l0.995-1.734C57.6,6.503,57.286,6.133,57.124,5.694z"/><path d="M58.662,6.971l-0.347,1.971C58.538,8.98,58.767,9,59,9c0.706,0,1.399-0.187,2.007-0.539l-1.004-1.73   C59.602,6.965,59.108,7.051,58.662,6.971z"/><path d="M61,5c0,0.47-0.166,0.926-0.465,1.283l1.532,1.285C62.668,6.851,63,5.938,63,5V4.965L61,5z"/><path d="M60.872,4.295l1.872-0.703c-0.329-0.877-0.96-1.614-1.778-2.076l-0.983,1.742C60.392,3.488,60.708,3.856,60.872,4.295z"/><path d="M5.993,6.737l0.995,1.734c0.813-0.467,1.44-1.207,1.765-2.084L6.876,5.694C6.714,6.133,6.4,6.503,5.993,6.737z"/><path d="M6.013,3.274l1.016-1.723c-0.805-0.475-1.79-0.649-2.69-0.496l0.336,1.971C5.122,2.951,5.614,3.039,6.013,3.274z"/><path d="M3.997,6.73l-1.004,1.73C3.601,8.813,4.294,9,5,9c0.233,0,0.462-0.02,0.685-0.059L5.338,6.971   C4.893,7.051,4.399,6.965,3.997,6.73z"/><path d="M4.017,3.258L3.034,1.516C2.216,1.978,1.585,2.715,1.256,3.592l1.872,0.703C3.292,3.856,3.608,3.488,4.017,3.258z"/><path d="M7,5v0.018L9,5c0-0.93-0.326-1.835-0.918-2.549l-1.54,1.275C6.842,4.089,7,4.528,7,5z"/><path d="M3.465,6.283C3.166,5.926,3,5.47,3,5V4.965L1,5c0,0.938,0.332,1.851,0.933,2.568L3.465,6.283z"/><path d="M50.662,14.971l-0.347,1.971C50.538,16.98,50.767,17,51,17c0.706,0,1.399-0.187,2.007-0.539l-1.004-1.73   C51.602,14.965,51.108,15.052,50.662,14.971z"/><path d="M55,13v-0.035L53,13c0,0.47-0.166,0.926-0.465,1.283l1.532,1.285C54.668,14.851,55,13.938,55,13z"/><path d="M52.872,12.295l1.872-0.703c-0.329-0.877-0.96-1.614-1.778-2.076l-0.983,1.742C52.392,11.488,52.708,11.856,52.872,12.295z   "/><path d="M51.326,11.026l0.336-1.971c-0.897-0.153-1.884,0.021-2.69,0.496l1.016,1.723C50.387,11.039,50.879,10.954,51.326,11.026z"/><path d="M49.458,11.727l-1.54-1.275C47.326,11.165,47,12.07,47,13v0.018L49,13C49,12.528,49.158,12.089,49.458,11.727z"/><path d="M49.124,13.694l-1.876,0.693c0.324,0.877,0.951,1.617,1.765,2.084l0.995-1.734C49.6,14.503,49.286,14.133,49.124,13.694z"/><path d="M13.685,16.941l-0.347-1.971c-0.445,0.081-0.939-0.006-1.342-0.24l-1.004,1.73C11.601,16.813,12.294,17,13,17   C13.233,17,13.462,16.98,13.685,16.941z"/><path d="M15,13v0.018L17,13c0-0.93-0.326-1.835-0.918-2.549l-1.54,1.275C14.842,12.089,15,12.528,15,13z"/><path d="M12.017,11.258l-0.983-1.742c-0.817,0.462-1.449,1.199-1.778,2.076l1.872,0.703C11.292,11.856,11.608,11.488,12.017,11.258   z"/><path d="M9,13c0,0.938,0.332,1.851,0.933,2.568l1.532-1.285C11.166,13.926,11,13.47,11,13v-0.035L9,13z"/><path d="M14.013,11.274l1.016-1.723c-0.805-0.475-1.791-0.649-2.69-0.496l0.336,1.971C13.122,10.95,13.614,11.039,14.013,11.274z"/><path d="M13.993,14.737l0.995,1.734c0.813-0.467,1.44-1.207,1.765-2.084l-1.876-0.693C14.714,14.133,14.4,14.503,13.993,14.737z"/></g><text x="0" y="79" fill="#000000" font-size="5px" font-weight="bold" font-family="'Helvetica Neue', Helvetica, Arial-Unicode, Arial, Sans-serif">Created by Template</text><text x="0" y="84" fill="#000000" font-size="5px" font-weight="bold" font-family="'Helvetica Neue', Helvetica, Arial-Unicode, Arial, Sans-serif">from the Noun Project</text></svg>